# xmcd CD database file
#
# Track frame offsets:
#	150
#	20155
#	38157
#	57220
#	75252
#	88627
#	110657
#	127077
#	142735
#	157607
#	172962
#	194570
#
# Disc length: 2761 seconds
#
# Revision: 1
# Processed by: cddbd v1.5.2PL0 Copyright (c) Steve Scherf et al.
# Submitted via: CDex 1.70beta2
#
DISCID=920ac70c
DTITLE=Maura O'Connell - Always
DYEAR=1989
DGENRE=Folk
TTITLE0='Till The Right One Comes Along
TTITLE1=Maggie
TTITLE2=Feet Of A Dancer
TTITLE3=Cast A Long Shadow
TTITLE4=The Scholar
TTITLE5=Mystic Lipstick
TTITLE6=My Irish Molly O
TTITLE7=If You Love Me
TTITLE8=Living In These Troubled Times
TTITLE9=Trouble In The Fields
TTITLE10=The Parting
TTITLE11=Always
EXTD=YEAR: 1989
EXTT0=
EXTT1=
EXTT2=
EXTT3=
EXTT4=
EXTT5=
EXTT6=
EXTT7=
EXTT8=
EXTT9=
EXTT10=
EXTT11=
PLAYORDER=
